# xmcd
#
# Track frame offsets:
#	150
#	22275
#	40425
#	63525
#	81525
#	97448
#	125400
#	152647
#	177382
#	197191
#	224152
#	247500
#	272025
#
# Disc length: 4131
#
# Revision: 2
# Processed by: cddbd v1.5.1PL0 Copyright (c) Steve Scherf et al.
# Submitted via: CDex 1.50Beta5
# Normalized: r1:DSETVAR1,TDELIM( - )
#
DISCID=cd10210d
DTITLE=Various Artist - New Age  111/112 Beat and Sweetness
DYEAR=1900
DGENRE=New Age
TTITLE0=Heal Schon - Why
TTITLE1=Greg Ellis - Form 10
TTITLE2=Comunication - Crystal Air
TTITLE3=Clobeda's - La nonna
TTITLE4=Minox - Old and theluxe
TTITLE5=TJ Rehmi - Shaam Aye
TTITLE6=Cecilia Chailly - Segnali di fumo
TTITLE7=Deuter - Flowing
TTITLE8=Artie Traum - Dune
TTITLE9=Ruben Romero and Robert Tree Cody - Three rivers
TTITLE10=Arturo Stalteri - The moon and the mirror
TTITLE11=James Asher - Red Desert
TTITLE12=Dunster - Purnima Namashkar
EXTD=
EXTT0=
EXTT1=
EXTT2=
EXTT3=
EXTT4=
EXTT5=
EXTT6=
EXTT7=
EXTT8=
EXTT9=
EXTT10=
EXTT11=
EXTT12=
PLAYORDER=
